<mxfile host="app.diagrams.net" modified="2024-05-14T01:20:56.969Z" agent="Mozilla/5.0 (Windows NT 10.0; Win64; x64) AppleWebKit/537.36 (KHTML, like Gecko) Chrome/124.0.0.0 Safari/537.36" etag="OueCGohv8reSeJl-0XX0" version="24.4.0" type="device">
  <diagram name="EXERCISE-1" id="7WXvErT6jwQCl5LBhXy7">
    <mxGraphModel dx="1100" dy="598" grid="1" gridSize="10" guides="1" tooltips="1" connect="1" arrows="1" fold="1" page="1" pageScale="1" pageWidth="850" pageHeight="1100" math="0" shadow="0">
      <root>
        <mxCell id="0" />
        <mxCell id="1" parent="0" />
        <mxCell id="-hOMn0kYKFU-R9jvK8EN-38" value="EXERCISE 13" style="text;html=1;align=center;verticalAlign=middle;resizable=0;points=[];autosize=1;strokeColor=none;fillColor=none;" parent="1" vertex="1">
          <mxGeometry x="320" width="100" height="30" as="geometry" />
        </mxCell>
        <mxCell id="jAzLcmatW34AS9ptDqRP-418" value="" style="edgeStyle=orthogonalEdgeStyle;rounded=0;orthogonalLoop=1;jettySize=auto;html=1;" edge="1" parent="1" source="jAzLcmatW34AS9ptDqRP-419" target="jAzLcmatW34AS9ptDqRP-421">
          <mxGeometry relative="1" as="geometry" />
        </mxCell>
        <mxCell id="jAzLcmatW34AS9ptDqRP-419" value="INICIO" style="ellipse;whiteSpace=wrap;html=1;" vertex="1" parent="1">
          <mxGeometry x="330" y="30" width="80" height="80" as="geometry" />
        </mxCell>
        <mxCell id="jAzLcmatW34AS9ptDqRP-420" value="" style="edgeStyle=orthogonalEdgeStyle;rounded=0;orthogonalLoop=1;jettySize=auto;html=1;" edge="1" parent="1" source="jAzLcmatW34AS9ptDqRP-421" target="jAzLcmatW34AS9ptDqRP-424">
          <mxGeometry relative="1" as="geometry" />
        </mxCell>
        <mxCell id="jAzLcmatW34AS9ptDqRP-421" value="INPUT&lt;div&gt;color1,numb1,&lt;/div&gt;&lt;div&gt;color2,numb2,&lt;/div&gt;&lt;div&gt;color3,numb3,&lt;/div&gt;&lt;div&gt;color4,numb4&lt;/div&gt;" style="shape=parallelogram;perimeter=parallelogramPerimeter;whiteSpace=wrap;html=1;fixedSize=1;" vertex="1" parent="1">
          <mxGeometry x="285" y="140" width="170" height="80" as="geometry" />
        </mxCell>
        <mxCell id="jAzLcmatW34AS9ptDqRP-422" value="" style="edgeStyle=orthogonalEdgeStyle;rounded=0;orthogonalLoop=1;jettySize=auto;html=1;" edge="1" parent="1" source="jAzLcmatW34AS9ptDqRP-424" target="jAzLcmatW34AS9ptDqRP-427">
          <mxGeometry relative="1" as="geometry" />
        </mxCell>
        <mxCell id="jAzLcmatW34AS9ptDqRP-423" value="" style="edgeStyle=orthogonalEdgeStyle;rounded=0;orthogonalLoop=1;jettySize=auto;html=1;" edge="1" parent="1" source="jAzLcmatW34AS9ptDqRP-424" target="jAzLcmatW34AS9ptDqRP-430">
          <mxGeometry relative="1" as="geometry" />
        </mxCell>
        <mxCell id="jAzLcmatW34AS9ptDqRP-424" value="color4== ? and numb1==numb4&amp;nbsp;&lt;div&gt;or numb4== -1 and color1==color4&amp;nbsp;&lt;/div&gt;&lt;div&gt;or color1==color4 and numb1==numb4&lt;/div&gt;" style="rhombus;whiteSpace=wrap;html=1;fillColor=#fff2cc;strokeColor=#d6b656;" vertex="1" parent="1">
          <mxGeometry x="220" y="250" width="300" height="150" as="geometry" />
        </mxCell>
        <mxCell id="jAzLcmatW34AS9ptDqRP-425" value="" style="edgeStyle=orthogonalEdgeStyle;rounded=0;orthogonalLoop=1;jettySize=auto;html=1;" edge="1" parent="1" source="jAzLcmatW34AS9ptDqRP-427" target="jAzLcmatW34AS9ptDqRP-433">
          <mxGeometry relative="1" as="geometry" />
        </mxCell>
        <mxCell id="jAzLcmatW34AS9ptDqRP-426" value="" style="edgeStyle=orthogonalEdgeStyle;rounded=0;orthogonalLoop=1;jettySize=auto;html=1;" edge="1" parent="1" source="jAzLcmatW34AS9ptDqRP-427" target="jAzLcmatW34AS9ptDqRP-437">
          <mxGeometry relative="1" as="geometry" />
        </mxCell>
        <mxCell id="jAzLcmatW34AS9ptDqRP-427" value="color4== ? and numb2==numb4&amp;nbsp;&lt;div&gt;or numb4==-1 and color2==color4&amp;nbsp;&lt;/div&gt;&lt;div&gt;or color2==color4 and numb2==numb4&lt;/div&gt;" style="rhombus;whiteSpace=wrap;html=1;fillColor=#fff2cc;strokeColor=#d6b656;" vertex="1" parent="1">
          <mxGeometry x="200" y="430" width="340" height="120" as="geometry" />
        </mxCell>
        <mxCell id="jAzLcmatW34AS9ptDqRP-428" value="SI" style="text;html=1;align=center;verticalAlign=middle;resizable=0;points=[];autosize=1;strokeColor=none;fillColor=none;" vertex="1" parent="1">
          <mxGeometry x="520" y="290" width="30" height="30" as="geometry" />
        </mxCell>
        <mxCell id="jAzLcmatW34AS9ptDqRP-429" value="" style="edgeStyle=orthogonalEdgeStyle;rounded=0;orthogonalLoop=1;jettySize=auto;html=1;" edge="1" parent="1" source="jAzLcmatW34AS9ptDqRP-430" target="jAzLcmatW34AS9ptDqRP-445">
          <mxGeometry relative="1" as="geometry" />
        </mxCell>
        <mxCell id="jAzLcmatW34AS9ptDqRP-430" value="OUTPUT&amp;nbsp;&lt;div&gt;1&lt;/div&gt;" style="shape=parallelogram;perimeter=parallelogramPerimeter;whiteSpace=wrap;html=1;fixedSize=1;" vertex="1" parent="1">
          <mxGeometry x="550" y="295" width="120" height="60" as="geometry" />
        </mxCell>
        <mxCell id="jAzLcmatW34AS9ptDqRP-431" value="NO" style="text;html=1;align=center;verticalAlign=middle;resizable=0;points=[];autosize=1;strokeColor=none;fillColor=none;" vertex="1" parent="1">
          <mxGeometry x="380" y="398" width="40" height="30" as="geometry" />
        </mxCell>
        <mxCell id="jAzLcmatW34AS9ptDqRP-432" value="" style="edgeStyle=orthogonalEdgeStyle;rounded=0;orthogonalLoop=1;jettySize=auto;html=1;" edge="1" parent="1" source="jAzLcmatW34AS9ptDqRP-433" target="jAzLcmatW34AS9ptDqRP-444">
          <mxGeometry relative="1" as="geometry" />
        </mxCell>
        <mxCell id="jAzLcmatW34AS9ptDqRP-433" value="OUTPUT&lt;div&gt;2&lt;/div&gt;" style="shape=parallelogram;perimeter=parallelogramPerimeter;whiteSpace=wrap;html=1;fixedSize=1;" vertex="1" parent="1">
          <mxGeometry x="560" y="460" width="120" height="60" as="geometry" />
        </mxCell>
        <mxCell id="jAzLcmatW34AS9ptDqRP-434" value="SI" style="text;html=1;align=center;verticalAlign=middle;resizable=0;points=[];autosize=1;strokeColor=none;fillColor=none;" vertex="1" parent="1">
          <mxGeometry x="530" y="450" width="30" height="30" as="geometry" />
        </mxCell>
        <mxCell id="jAzLcmatW34AS9ptDqRP-435" value="" style="edgeStyle=orthogonalEdgeStyle;rounded=0;orthogonalLoop=1;jettySize=auto;html=1;" edge="1" parent="1" source="jAzLcmatW34AS9ptDqRP-437" target="jAzLcmatW34AS9ptDqRP-440">
          <mxGeometry relative="1" as="geometry" />
        </mxCell>
        <mxCell id="jAzLcmatW34AS9ptDqRP-436" value="" style="edgeStyle=orthogonalEdgeStyle;rounded=0;orthogonalLoop=1;jettySize=auto;html=1;" edge="1" parent="1" source="jAzLcmatW34AS9ptDqRP-437" target="jAzLcmatW34AS9ptDqRP-442">
          <mxGeometry relative="1" as="geometry" />
        </mxCell>
        <mxCell id="jAzLcmatW34AS9ptDqRP-437" value="color4== ? and numb3==numb4&amp;nbsp;&lt;div&gt;or numb4== -1 and color3==color4&amp;nbsp;&lt;/div&gt;&lt;div&gt;or color3==color4 and numb3==numb4&lt;/div&gt;" style="rhombus;whiteSpace=wrap;html=1;fillColor=#fff2cc;strokeColor=#d6b656;" vertex="1" parent="1">
          <mxGeometry x="200" y="595" width="340" height="120" as="geometry" />
        </mxCell>
        <mxCell id="jAzLcmatW34AS9ptDqRP-438" value="NO" style="text;html=1;align=center;verticalAlign=middle;resizable=0;points=[];autosize=1;strokeColor=none;fillColor=none;" vertex="1" parent="1">
          <mxGeometry x="380" y="548" width="40" height="30" as="geometry" />
        </mxCell>
        <mxCell id="jAzLcmatW34AS9ptDqRP-439" value="" style="edgeStyle=orthogonalEdgeStyle;rounded=0;orthogonalLoop=1;jettySize=auto;html=1;" edge="1" parent="1" source="jAzLcmatW34AS9ptDqRP-440" target="jAzLcmatW34AS9ptDqRP-443">
          <mxGeometry relative="1" as="geometry" />
        </mxCell>
        <mxCell id="jAzLcmatW34AS9ptDqRP-440" value="OUTPUT&lt;div&gt;3&lt;/div&gt;" style="shape=parallelogram;perimeter=parallelogramPerimeter;whiteSpace=wrap;html=1;fixedSize=1;" vertex="1" parent="1">
          <mxGeometry x="560" y="625" width="120" height="60" as="geometry" />
        </mxCell>
        <mxCell id="jAzLcmatW34AS9ptDqRP-441" value="SI" style="text;html=1;align=center;verticalAlign=middle;resizable=0;points=[];autosize=1;strokeColor=none;fillColor=none;" vertex="1" parent="1">
          <mxGeometry x="525" y="608" width="30" height="30" as="geometry" />
        </mxCell>
        <mxCell id="jAzLcmatW34AS9ptDqRP-442" value="FIN" style="ellipse;whiteSpace=wrap;html=1;" vertex="1" parent="1">
          <mxGeometry x="330" y="750" width="80" height="80" as="geometry" />
        </mxCell>
        <mxCell id="jAzLcmatW34AS9ptDqRP-443" value="FIN" style="ellipse;whiteSpace=wrap;html=1;" vertex="1" parent="1">
          <mxGeometry x="700" y="615" width="80" height="80" as="geometry" />
        </mxCell>
        <mxCell id="jAzLcmatW34AS9ptDqRP-444" value="FIN" style="ellipse;whiteSpace=wrap;html=1;" vertex="1" parent="1">
          <mxGeometry x="700" y="450" width="80" height="80" as="geometry" />
        </mxCell>
        <mxCell id="jAzLcmatW34AS9ptDqRP-445" value="FIN" style="ellipse;whiteSpace=wrap;html=1;" vertex="1" parent="1">
          <mxGeometry x="700" y="285" width="80" height="80" as="geometry" />
        </mxCell>
        <mxCell id="jAzLcmatW34AS9ptDqRP-446" value="NO" style="text;html=1;align=center;verticalAlign=middle;resizable=0;points=[];autosize=1;strokeColor=none;fillColor=none;" vertex="1" parent="1">
          <mxGeometry x="380" y="718" width="40" height="30" as="geometry" />
        </mxCell>
      </root>
    </mxGraphModel>
  </diagram>
</mxfile>
